<svg xmlns="http://www.w3.org/2000/svg" xmlns:xlink="http://www.w3.org/1999/xlink" width="112" height="37" viewBox="0 0 112 37">
    <defs>
        <path id="56wbbfn7ga" d="M0 14.033L111.671 14.033 111.671 0.001 0 0.001z"/>
    </defs>
    <g fill="none" fill-rule="evenodd">
        <g transform="translate(0 11)">
            <path fill="#494949" d="M63.05 12.075c-1.323-1.287-1.976-2.937-1.976-4.95 0-2.03.672-3.699 2.013-5.004C64.447.798 66.078.145 68 .145c2.412 0 4.587 1.106 5.766 2.773l-1.795 1.76c-1.05-1.288-2.321-1.94-3.826-1.94-1.214 0-2.229.417-3.046 1.25-.815.816-1.232 1.868-1.232 3.136 0 1.235.398 2.25 1.214 3.065.816.816 1.831 1.216 3.046 1.216 1.56 0 2.865-.654 3.899-1.96l1.849 1.687c-1.233 1.687-3.427 2.847-5.91 2.847-1.941 0-3.59-.635-4.914-1.904"/>
            <mask id="omjlvpthsb" fill="#fff">
                <use xlink:href="#56wbbfn7ga"/>
            </mask>
            <path fill="#494949" d="M74.928 13.779L77.485 13.779 77.485-.001 74.928-.001zM84.207 11.658c.78 0 1.414-.271 1.94-.816.525-.562.797-1.233.797-2.012 0-.78-.272-1.45-.798-1.995-.525-.544-1.16-.815-1.94-.815-.779 0-1.432.271-1.957.815-.527.544-.78 1.216-.78 1.995 0 .779.253 1.45.78 2.012.525.545 1.178.816 1.958.816M80.398 5.15c.998-1.015 2.267-1.525 3.809-1.525 1.541 0 2.81.51 3.807 1.525.997.996 1.486 2.23 1.486 3.68 0 1.468-.489 2.702-1.486 3.698-.998.997-2.266 1.505-3.807 1.505-1.542 0-2.811-.508-3.809-1.505-.996-.996-1.486-2.23-1.486-3.698 0-1.45.49-2.684 1.486-3.68M90.807 9.61V3.896h2.557V9.61c0 1.25.744 2.067 1.977 2.067 1.232 0 1.975-.816 1.975-2.067V3.897h2.557V9.61c0 2.775-1.704 4.406-4.532 4.406-2.81 0-4.534-1.631-4.534-4.406M108.48 6.817c-.508-.562-1.16-.834-1.977-.834-.816 0-1.469.272-1.994.834-.507.544-.761 1.215-.761 2.012 0 .816.254 1.487.76 2.049.526.545 1.18.817 1.995.817.816 0 1.47-.272 1.976-.817.508-.562.762-1.233.762-2.049 0-.797-.254-1.468-.762-2.012zm.634-6.818h2.557v13.78h-2.503v-1.214c-.798.96-1.813 1.45-3.063 1.45-1.397 0-2.575-.49-3.5-1.469-.924-.996-1.397-2.23-1.397-3.717 0-1.468.473-2.701 1.397-3.698.943-.997 2.103-1.487 3.5-1.487 1.196 0 2.193.472 3.009 1.397V-.001z" mask="url(#omjlvpthsb)"/>
            <path fill="#FA2828" d="M24.005 5.716c-.507 0-.697.074-1.014.36-.333.297-1.022 1.01-1.177 1.237-.074.108-.043.209.02.313.37.631 1.045.82 2 .82h7.296c.507 0 .697-.074 1.014-.358.333-.3 1.02-1.01 1.177-1.237.074-.109.043-.21-.019-.316-.37-.63-1.047-.82-2.002-.82h-7.295z" mask="url(#omjlvpthsb)"/>
            <path fill="#494949" d="M42.79 4.248c-.451-.23-.654-.25-1.066-.14-.433.115-1.369.435-1.611.568-.115.062-.134.165-.126.288.044.731.56 1.206 1.41 1.64l6.501 3.311c.452.23.656.25 1.068.14.43-.115 1.367-.434 1.61-.567.116-.063.133-.168.126-.29-.044-.73-.56-1.205-1.413-1.64l-6.5-3.31zM37.357.441c-.1-.059-.193-.088-.297-.018-.214.147-.885.798-1.166 1.11-.268.3-.34.479-.34.958v9.341c0 .903.18 1.539.773 1.889.1.06.195.088.297.019.216-.148.887-.799 1.167-1.11.27-.3.34-.479.34-.958V2.33c0-.902-.178-1.538-.774-1.889M54.362.441c-.1-.059-.194-.088-.297-.018-.215.147-.885.798-1.167 1.11-.268.3-.34.479-.34.958v9.341c0 .903.178 1.539.773 1.889.1.06.195.088.297.019.216-.148.887-.799 1.167-1.11.27-.3.34-.479.34-.958V2.33c0-.902-.178-1.538-.773-1.889M7.236 4.248c-.451-.23-.654-.25-1.067-.14-.432.115-1.369.435-1.61.568-.116.062-.134.165-.126.288.044.731.56 1.206 1.411 1.64l6.5 3.311c.452.23.655.25 1.067.14.431-.115 1.367-.434 1.61-.567.116-.063.134-.168.126-.29-.044-.73-.56-1.205-1.412-1.64l-6.499-3.31zM1.803.441c-.1-.059-.194-.088-.296-.018C1.291.57.621 1.22.34 1.533c-.268.3-.339.479-.339.958v9.341c0 .903.179 1.539.773 1.889.1.06.195.088.298.019.215-.148.885-.799 1.167-1.11.268-.3.339-.479.339-.958V2.33c0-.902-.179-1.538-.774-1.889M18.807.441c-.1-.059-.194-.088-.297-.018-.214.147-.885.798-1.167 1.11-.268.3-.339.479-.339.958v9.341c0 .903.18 1.539.773 1.889.1.06.195.088.298.019.215-.148.885-.799 1.166-1.11.269-.3.34-.479.34-.958V2.33c0-.902-.179-1.538-.774-1.889" mask="url(#omjlvpthsb)"/>
        </g>
    </g>
</svg>
